<svg xmlns="http://www.w3.org/2000/svg" viewBox="0 0 160 160" style="enable-background:new 0 0 160 160" xml:space="preserve"><path d="m39.1 145.9 11.7-20.3 2.7-4.7 3.7-6.4 22.1-38.3L61.2 45 3.6 145.9h35.5zm25.7-94.4 2.5 4.2 8.3 14.2v.1L64.8 51.5z" style="fill:none;stroke:#61ce99;stroke-width:6;stroke-linecap:round;stroke-linejoin:round;stroke-miterlimit:10"/><path d="m101.4 114.7 35.9-.1L78.2 14.1 61.2 45l6.1 10.7L75.6 70l3.7 6.4m0 0 22.1 38.3m28.7-.2-21.3.1" style="fill:none;stroke:#28a067;stroke-width:6;stroke-linecap:round;stroke-linejoin:round;stroke-miterlimit:10"/><path d="M39 145.9h117.4l-19.1-31.4-80.1.1L39 145.9zM53.4 121l-10.6 18.5 7.9-13.9 2.7-4.6z" style="fill:none;stroke:#41b883;stroke-width:6;stroke-linecap:round;stroke-linejoin:round;stroke-miterlimit:10"/><path style="fill:none;stroke:#61ce99;stroke-width:6;stroke-linecap:round;stroke-miterlimit:10" d="m39 145.9 22.2-38.3"/></svg>